<mxfile host="Electron" modified="2023-05-01T14:46:57.504Z" agent="Mozilla/5.0 (Windows NT 10.0; Win64; x64) AppleWebKit/537.36 (KHTML, like Gecko) draw.io/21.2.1 Chrome/112.0.5615.87 Electron/24.1.2 Safari/537.36" etag="uPqtelHhpgopEmgL_Ait" version="21.2.1" type="device">
  <diagram name="Page-1" id="4_tPyxa64Dnfn5mtqRyB">
    <mxGraphModel dx="1948" dy="820" grid="1" gridSize="10" guides="1" tooltips="1" connect="1" arrows="1" fold="1" page="1" pageScale="1" pageWidth="850" pageHeight="1100" math="0" shadow="0">
      <root>
        <mxCell id="0" />
        <mxCell id="1" parent="0" />
        <mxCell id="D11aKV0CUpfygHuOLcRb-1" value="&lt;i style=&quot;border-color: var(--border-color); color: rgb(0, 153, 0);&quot;&gt;&lt;font style=&quot;border-color: var(--border-color); font-size: 15px;&quot;&gt;&amp;lt;&amp;lt;HttpServlet&amp;gt;&amp;gt;&lt;/font&gt;&lt;/i&gt;&lt;font color=&quot;#009900&quot; style=&quot;&quot;&gt;&lt;b style=&quot;font-size: 18px;&quot;&gt;&lt;br&gt;auctionOffer&lt;br&gt;&lt;/b&gt;&lt;/font&gt;" style="rounded=0;whiteSpace=wrap;html=1;strokeWidth=3;fillColor=default;strokeColor=#009900;" parent="1" vertex="1">
          <mxGeometry x="-160" y="220" width="150" height="60" as="geometry" />
        </mxCell>
        <mxCell id="D11aKV0CUpfygHuOLcRb-2" value="&lt;font color=&quot;#009900&quot; style=&quot;&quot;&gt;&lt;i style=&quot;&quot;&gt;&lt;font style=&quot;font-size: 15px;&quot;&gt;&amp;lt;&amp;lt;Class&amp;gt;&amp;gt;&lt;/font&gt;&lt;/i&gt;&lt;br&gt;&lt;span style=&quot;font-size: 18px;&quot;&gt;&lt;b&gt;Auction&lt;/b&gt;&lt;/span&gt;&lt;br&gt;&lt;/font&gt;" style="rounded=0;whiteSpace=wrap;html=1;strokeWidth=3;fillColor=default;strokeColor=#009900;" parent="1" vertex="1">
          <mxGeometry x="250" y="220" width="150" height="60" as="geometry" />
        </mxCell>
        <mxCell id="D11aKV0CUpfygHuOLcRb-3" value="" style="endArrow=none;html=1;rounded=0;entryX=0.5;entryY=1;entryDx=0;entryDy=0;strokeWidth=2;fillColor=#d5e8d4;strokeColor=#009900;dashed=1;" parent="1" source="D11aKV0CUpfygHuOLcRb-6" target="D11aKV0CUpfygHuOLcRb-1" edge="1">
          <mxGeometry width="50" height="50" relative="1" as="geometry">
            <mxPoint x="-85" y="670" as="sourcePoint" />
            <mxPoint x="160" y="440" as="targetPoint" />
          </mxGeometry>
        </mxCell>
        <mxCell id="D11aKV0CUpfygHuOLcRb-4" value="" style="endArrow=none;html=1;rounded=0;entryX=0.5;entryY=1;entryDx=0;entryDy=0;strokeWidth=2;fillColor=#d5e8d4;strokeColor=#009900;dashed=1;" parent="1" source="D11aKV0CUpfygHuOLcRb-9" target="D11aKV0CUpfygHuOLcRb-2" edge="1">
          <mxGeometry width="50" height="50" relative="1" as="geometry">
            <mxPoint x="325" y="670" as="sourcePoint" />
            <mxPoint x="45" y="350" as="targetPoint" />
          </mxGeometry>
        </mxCell>
        <mxCell id="D11aKV0CUpfygHuOLcRb-5" value="" style="endArrow=none;html=1;rounded=0;entryX=0.412;entryY=1.004;entryDx=0;entryDy=0;strokeWidth=2;fillColor=#d5e8d4;strokeColor=#009900;dashed=1;entryPerimeter=0;" parent="1" edge="1">
          <mxGeometry width="50" height="50" relative="1" as="geometry">
            <mxPoint x="-87" y="960" as="sourcePoint" />
            <mxPoint x="-87.19999999999982" y="911.96" as="targetPoint" />
          </mxGeometry>
        </mxCell>
        <mxCell id="D11aKV0CUpfygHuOLcRb-6" value="" style="rounded=0;whiteSpace=wrap;html=1;fillColor=#FFFFFF;strokeWidth=2;strokeColor=#009900;" parent="1" vertex="1">
          <mxGeometry x="-97.5" y="340" width="25" height="580" as="geometry" />
        </mxCell>
        <mxCell id="D11aKV0CUpfygHuOLcRb-7" value="" style="endArrow=none;html=1;rounded=0;strokeWidth=2;strokeColor=#009900;startArrow=classic;startFill=1;entryX=1.008;entryY=0.241;entryDx=0;entryDy=0;entryPerimeter=0;" parent="1" edge="1">
          <mxGeometry width="50" height="50" relative="1" as="geometry">
            <mxPoint x="690" y="620" as="sourcePoint" />
            <mxPoint x="-72.50000000000018" y="619.8399999999999" as="targetPoint" />
          </mxGeometry>
        </mxCell>
        <mxCell id="D11aKV0CUpfygHuOLcRb-9" value="" style="rounded=0;whiteSpace=wrap;html=1;fillColor=#FFFFFF;strokeWidth=2;strokeColor=#009900;" parent="1" vertex="1">
          <mxGeometry x="312.5" y="370" width="25" height="90" as="geometry" />
        </mxCell>
        <mxCell id="D11aKV0CUpfygHuOLcRb-10" value="&lt;font style=&quot;&quot;&gt;&lt;i style=&quot;&quot;&gt;&lt;font style=&quot;font-size: 12px;&quot;&gt;&amp;lt;&amp;lt;static&amp;gt;&amp;gt;&lt;/font&gt;&lt;/i&gt;&lt;br&gt;&lt;span style=&quot;font-size: 14px;&quot;&gt;getBidsPerAuction(auction.getId())&lt;/span&gt;&lt;/font&gt;" style="text;html=1;align=center;verticalAlign=middle;resizable=0;points=[];autosize=1;strokeColor=none;fillColor=none;" parent="1" vertex="1">
          <mxGeometry x="14.8" y="582" width="240" height="40" as="geometry" />
        </mxCell>
        <mxCell id="D11aKV0CUpfygHuOLcRb-11" value="&lt;font color=&quot;#009900&quot; style=&quot;&quot;&gt;&lt;i style=&quot;&quot;&gt;&lt;font style=&quot;font-size: 15px;&quot;&gt;&amp;lt;&amp;lt;WebContext&amp;gt;&amp;gt;&lt;/font&gt;&lt;/i&gt;&lt;br&gt;&lt;span style=&quot;font-size: 18px;&quot;&gt;&lt;b&gt;context&lt;/b&gt;&lt;/span&gt;&lt;br&gt;&lt;/font&gt;" style="rounded=0;whiteSpace=wrap;html=1;strokeWidth=3;fillColor=default;strokeColor=#009900;" parent="1" vertex="1">
          <mxGeometry x="820" y="220" width="150" height="60" as="geometry" />
        </mxCell>
        <mxCell id="D11aKV0CUpfygHuOLcRb-12" value="" style="endArrow=none;html=1;rounded=0;entryX=0.5;entryY=1;entryDx=0;entryDy=0;strokeWidth=2;fillColor=#d5e8d4;strokeColor=#009900;dashed=1;" parent="1" source="D11aKV0CUpfygHuOLcRb-14" target="D11aKV0CUpfygHuOLcRb-11" edge="1">
          <mxGeometry width="50" height="50" relative="1" as="geometry">
            <mxPoint x="895" y="670" as="sourcePoint" />
            <mxPoint x="615" y="350" as="targetPoint" />
          </mxGeometry>
        </mxCell>
        <mxCell id="D11aKV0CUpfygHuOLcRb-13" value="" style="endArrow=none;html=1;rounded=0;entryX=0.5;entryY=1;entryDx=0;entryDy=0;strokeWidth=2;fillColor=#d5e8d4;strokeColor=#009900;dashed=1;" parent="1" target="D11aKV0CUpfygHuOLcRb-14" edge="1">
          <mxGeometry width="50" height="50" relative="1" as="geometry">
            <mxPoint x="895" y="960" as="sourcePoint" />
            <mxPoint x="892.5" y="740" as="targetPoint" />
          </mxGeometry>
        </mxCell>
        <mxCell id="D11aKV0CUpfygHuOLcRb-14" value="" style="rounded=0;whiteSpace=wrap;html=1;fillColor=#FFFFFF;strokeWidth=2;strokeColor=#009900;" parent="1" vertex="1">
          <mxGeometry x="882.5" y="720" width="25" height="120" as="geometry" />
        </mxCell>
        <mxCell id="D11aKV0CUpfygHuOLcRb-15" value="" style="endArrow=none;html=1;rounded=0;strokeWidth=2;strokeColor=#009900;startArrow=classic;startFill=1;entryX=1.049;entryY=0.611;entryDx=0;entryDy=0;entryPerimeter=0;exitX=0;exitY=0.283;exitDx=0;exitDy=0;exitPerimeter=0;" parent="1" source="D11aKV0CUpfygHuOLcRb-51" edge="1">
          <mxGeometry width="50" height="50" relative="1" as="geometry">
            <mxPoint x="1060" y="887" as="sourcePoint" />
            <mxPoint x="-73.77500000000009" y="886.6400000000001" as="targetPoint" />
          </mxGeometry>
        </mxCell>
        <mxCell id="D11aKV0CUpfygHuOLcRb-16" value="&lt;font style=&quot;font-size: 14px;&quot;&gt;process(&quot;auctionOffer&quot;, context, resp.getWriter())&lt;/font&gt;" style="text;html=1;align=center;verticalAlign=middle;resizable=0;points=[];autosize=1;strokeColor=none;fillColor=none;" parent="1" vertex="1">
          <mxGeometry x="-32.5" y="861" width="330" height="30" as="geometry" />
        </mxCell>
        <mxCell id="D11aKV0CUpfygHuOLcRb-17" value="" style="endArrow=none;html=1;rounded=0;exitX=0;exitY=0.25;exitDx=0;exitDy=0;strokeWidth=2;strokeColor=#009900;startArrow=classic;startFill=1;" parent="1" edge="1">
          <mxGeometry width="50" height="50" relative="1" as="geometry">
            <mxPoint x="-97.5" y="360" as="sourcePoint" />
            <mxPoint x="-220" y="360" as="targetPoint" />
          </mxGeometry>
        </mxCell>
        <mxCell id="D11aKV0CUpfygHuOLcRb-18" value="&lt;font style=&quot;font-size: 14px;&quot;&gt;doGet&lt;/font&gt;" style="text;html=1;align=center;verticalAlign=middle;resizable=0;points=[];autosize=1;strokeColor=none;fillColor=none;" parent="1" vertex="1">
          <mxGeometry x="-180" y="334" width="60" height="30" as="geometry" />
        </mxCell>
        <mxCell id="D11aKV0CUpfygHuOLcRb-19" value="&lt;font style=&quot;font-size: 14px;&quot;&gt;&lt;i&gt;GET&lt;br&gt;&lt;/i&gt;&lt;b&gt;/auctionOffer&lt;/b&gt;&lt;/font&gt;&lt;br&gt;id" style="text;html=1;align=right;verticalAlign=middle;resizable=0;points=[];autosize=1;strokeColor=none;fillColor=none;" parent="1" vertex="1">
          <mxGeometry x="-230" y="400" width="110" height="60" as="geometry" />
        </mxCell>
        <mxCell id="D11aKV0CUpfygHuOLcRb-28" value="" style="group" parent="1" vertex="1" connectable="0">
          <mxGeometry x="-97.5" y="950" width="20" height="20" as="geometry" />
        </mxCell>
        <mxCell id="D11aKV0CUpfygHuOLcRb-29" value="" style="endArrow=none;html=1;rounded=0;strokeWidth=2;fillColor=#d5e8d4;strokeColor=#009900;" parent="D11aKV0CUpfygHuOLcRb-28" edge="1">
          <mxGeometry width="50" height="50" relative="1" as="geometry">
            <mxPoint y="20" as="sourcePoint" />
            <mxPoint x="20" as="targetPoint" />
          </mxGeometry>
        </mxCell>
        <mxCell id="D11aKV0CUpfygHuOLcRb-30" value="" style="endArrow=none;html=1;rounded=0;strokeWidth=2;fillColor=#d5e8d4;strokeColor=#009900;" parent="D11aKV0CUpfygHuOLcRb-28" edge="1">
          <mxGeometry width="50" height="50" relative="1" as="geometry">
            <mxPoint x="20" y="20" as="sourcePoint" />
            <mxPoint as="targetPoint" />
          </mxGeometry>
        </mxCell>
        <mxCell id="D11aKV0CUpfygHuOLcRb-36" value="" style="endArrow=none;html=1;rounded=0;strokeWidth=2;strokeColor=#009900;startArrow=classic;startFill=1;entryX=1.008;entryY=0.241;entryDx=0;entryDy=0;entryPerimeter=0;" parent="1" edge="1">
          <mxGeometry width="50" height="50" relative="1" as="geometry">
            <mxPoint x="500" y="514" as="sourcePoint" />
            <mxPoint x="-73.30000000000018" y="513.8399999999999" as="targetPoint" />
          </mxGeometry>
        </mxCell>
        <mxCell id="D11aKV0CUpfygHuOLcRb-37" value="&lt;font style=&quot;&quot;&gt;&lt;i style=&quot;&quot;&gt;&lt;font style=&quot;font-size: 12px;&quot;&gt;&amp;lt;&amp;lt;static&amp;gt;&amp;gt;&lt;/font&gt;&lt;/i&gt;&lt;br&gt;&lt;span style=&quot;font-size: 14px;&quot;&gt;getArticlesPerAuction(auction.getId())&lt;/span&gt;&lt;/font&gt;" style="text;html=1;align=center;verticalAlign=middle;resizable=0;points=[];autosize=1;strokeColor=none;fillColor=none;" parent="1" vertex="1">
          <mxGeometry x="4" y="477" width="260" height="40" as="geometry" />
        </mxCell>
        <mxCell id="D11aKV0CUpfygHuOLcRb-38" value="" style="endArrow=none;html=1;rounded=0;strokeWidth=2;strokeColor=#009900;startArrow=classic;startFill=1;" parent="1" edge="1">
          <mxGeometry width="50" height="50" relative="1" as="geometry">
            <mxPoint x="-70.80000000000018" y="553.8399999999999" as="sourcePoint" />
            <mxPoint x="500" y="554" as="targetPoint" />
          </mxGeometry>
        </mxCell>
        <mxCell id="D11aKV0CUpfygHuOLcRb-39" value="&lt;font style=&quot;font-size: 14px;&quot;&gt;&lt;i&gt;List&amp;lt;Article&amp;gt;&lt;/i&gt;&amp;nbsp;articleList&lt;/font&gt;" style="text;html=1;align=center;verticalAlign=middle;resizable=0;points=[];autosize=1;strokeColor=none;fillColor=none;" parent="1" vertex="1">
          <mxGeometry x="58.5" y="530" width="160" height="30" as="geometry" />
        </mxCell>
        <mxCell id="D11aKV0CUpfygHuOLcRb-40" value="" style="endArrow=none;html=1;rounded=0;strokeWidth=2;strokeColor=#009900;startArrow=classic;startFill=1;" parent="1" edge="1">
          <mxGeometry width="50" height="50" relative="1" as="geometry">
            <mxPoint x="-68.30000000000018" y="653.8399999999999" as="sourcePoint" />
            <mxPoint x="690" y="654" as="targetPoint" />
          </mxGeometry>
        </mxCell>
        <mxCell id="D11aKV0CUpfygHuOLcRb-41" value="&lt;font style=&quot;font-size: 14px;&quot;&gt;&lt;i style=&quot;border-color: var(--border-color);&quot;&gt;List&amp;lt;Bid&amp;gt;&lt;/i&gt;&amp;nbsp;bidList&lt;/font&gt;" style="text;html=1;align=center;verticalAlign=middle;resizable=0;points=[];autosize=1;strokeColor=none;fillColor=none;" parent="1" vertex="1">
          <mxGeometry x="68" y="630" width="130" height="30" as="geometry" />
        </mxCell>
        <mxCell id="D11aKV0CUpfygHuOLcRb-44" value="" style="endArrow=none;html=1;rounded=0;strokeWidth=2;strokeColor=#009900;startArrow=classic;startFill=1;" parent="1" edge="1">
          <mxGeometry width="50" height="50" relative="1" as="geometry">
            <mxPoint x="880" y="740" as="sourcePoint" />
            <mxPoint x="-70" y="740" as="targetPoint" />
          </mxGeometry>
        </mxCell>
        <mxCell id="D11aKV0CUpfygHuOLcRb-45" value="&lt;font style=&quot;font-size: 14px;&quot;&gt;setVariable(&quot;auction&quot;, auction)&lt;/font&gt;" style="text;html=1;align=center;verticalAlign=middle;resizable=0;points=[];autosize=1;strokeColor=none;fillColor=none;" parent="1" vertex="1">
          <mxGeometry x="33.5" y="715" width="210" height="30" as="geometry" />
        </mxCell>
        <mxCell id="D11aKV0CUpfygHuOLcRb-47" value="" style="endArrow=none;html=1;rounded=0;entryX=0.5;entryY=1;entryDx=0;entryDy=0;strokeWidth=2;fillColor=#d5e8d4;strokeColor=#009900;dashed=1;" parent="1" target="D11aKV0CUpfygHuOLcRb-9" edge="1">
          <mxGeometry width="50" height="50" relative="1" as="geometry">
            <mxPoint x="325" y="960" as="sourcePoint" />
            <mxPoint x="325" y="676" as="targetPoint" />
          </mxGeometry>
        </mxCell>
        <mxCell id="D11aKV0CUpfygHuOLcRb-48" value="&lt;font color=&quot;#009900&quot; style=&quot;&quot;&gt;&lt;i style=&quot;&quot;&gt;&lt;font style=&quot;font-size: 15px;&quot;&gt;&amp;lt;&amp;lt;TemplateEngine&amp;gt;&amp;gt;&lt;/font&gt;&lt;/i&gt;&lt;br&gt;&lt;span style=&quot;font-size: 18px;&quot;&gt;&lt;b&gt;templateEngine&lt;/b&gt;&lt;/span&gt;&lt;br&gt;&lt;/font&gt;" style="rounded=0;whiteSpace=wrap;html=1;strokeWidth=3;fillColor=default;strokeColor=#009900;" parent="1" vertex="1">
          <mxGeometry x="1010" y="220" width="150" height="60" as="geometry" />
        </mxCell>
        <mxCell id="D11aKV0CUpfygHuOLcRb-49" value="" style="endArrow=none;html=1;rounded=0;entryX=0.5;entryY=1;entryDx=0;entryDy=0;strokeWidth=2;fillColor=#d5e8d4;strokeColor=#009900;dashed=1;" parent="1" source="D11aKV0CUpfygHuOLcRb-51" target="D11aKV0CUpfygHuOLcRb-48" edge="1">
          <mxGeometry width="50" height="50" relative="1" as="geometry">
            <mxPoint x="1085" y="670" as="sourcePoint" />
            <mxPoint x="805" y="350" as="targetPoint" />
          </mxGeometry>
        </mxCell>
        <mxCell id="D11aKV0CUpfygHuOLcRb-50" value="" style="endArrow=none;html=1;rounded=0;entryX=0.5;entryY=1;entryDx=0;entryDy=0;strokeWidth=2;fillColor=#d5e8d4;strokeColor=#009900;dashed=1;" parent="1" target="D11aKV0CUpfygHuOLcRb-51" edge="1">
          <mxGeometry width="50" height="50" relative="1" as="geometry">
            <mxPoint x="1083" y="960" as="sourcePoint" />
            <mxPoint x="1082.5" y="740" as="targetPoint" />
          </mxGeometry>
        </mxCell>
        <mxCell id="D11aKV0CUpfygHuOLcRb-51" value="" style="rounded=0;whiteSpace=wrap;html=1;fillColor=#FFFFFF;strokeWidth=2;strokeColor=#009900;" parent="1" vertex="1">
          <mxGeometry x="1070" y="870" width="25" height="60" as="geometry" />
        </mxCell>
        <mxCell id="D11aKV0CUpfygHuOLcRb-56" value="" style="endArrow=none;html=1;rounded=0;strokeWidth=2;strokeColor=#009900;startArrow=classic;startFill=1;" parent="1" edge="1">
          <mxGeometry width="50" height="50" relative="1" as="geometry">
            <mxPoint x="880" y="780" as="sourcePoint" />
            <mxPoint x="-70" y="779" as="targetPoint" />
          </mxGeometry>
        </mxCell>
        <mxCell id="D11aKV0CUpfygHuOLcRb-57" value="&lt;font style=&quot;font-size: 14px;&quot;&gt;setVariable(&quot;articles&quot;, articleList)&lt;/font&gt;" style="text;html=1;align=center;verticalAlign=middle;resizable=0;points=[];autosize=1;strokeColor=none;fillColor=none;" parent="1" vertex="1">
          <mxGeometry x="26" y="754" width="220" height="30" as="geometry" />
        </mxCell>
        <mxCell id="Nm4DvwC05aNTQ_nPjf05-1" value="&lt;font color=&quot;#009900&quot; style=&quot;&quot;&gt;&lt;i style=&quot;&quot;&gt;&lt;font style=&quot;font-size: 15px;&quot;&gt;&amp;lt;&amp;lt;Class&amp;gt;&amp;gt;&lt;/font&gt;&lt;/i&gt;&lt;br&gt;&lt;span style=&quot;font-size: 18px;&quot;&gt;&lt;b&gt;Bid&lt;/b&gt;&lt;/span&gt;&lt;br&gt;&lt;/font&gt;" style="rounded=0;whiteSpace=wrap;html=1;strokeWidth=3;fillColor=default;strokeColor=#009900;" parent="1" vertex="1">
          <mxGeometry x="630" y="220" width="150" height="60" as="geometry" />
        </mxCell>
        <mxCell id="Nm4DvwC05aNTQ_nPjf05-2" value="" style="endArrow=none;html=1;rounded=0;entryX=0.5;entryY=1;entryDx=0;entryDy=0;strokeWidth=2;fillColor=#d5e8d4;strokeColor=#009900;dashed=1;" parent="1" source="Nm4DvwC05aNTQ_nPjf05-4" target="Nm4DvwC05aNTQ_nPjf05-1" edge="1">
          <mxGeometry width="50" height="50" relative="1" as="geometry">
            <mxPoint x="705" y="670" as="sourcePoint" />
            <mxPoint x="425" y="350" as="targetPoint" />
          </mxGeometry>
        </mxCell>
        <mxCell id="Nm4DvwC05aNTQ_nPjf05-3" value="" style="endArrow=none;html=1;rounded=0;entryX=0.5;entryY=1;entryDx=0;entryDy=0;strokeWidth=2;fillColor=#d5e8d4;strokeColor=#009900;dashed=1;" parent="1" target="Nm4DvwC05aNTQ_nPjf05-4" edge="1">
          <mxGeometry width="50" height="50" relative="1" as="geometry">
            <mxPoint x="705" y="960" as="sourcePoint" />
            <mxPoint x="702.5" y="740" as="targetPoint" />
          </mxGeometry>
        </mxCell>
        <mxCell id="Nm4DvwC05aNTQ_nPjf05-4" value="" style="rounded=0;whiteSpace=wrap;html=1;fillColor=#FFFFFF;strokeWidth=2;strokeColor=#009900;" parent="1" vertex="1">
          <mxGeometry x="692.5" y="600" width="25" height="90" as="geometry" />
        </mxCell>
        <mxCell id="Nm4DvwC05aNTQ_nPjf05-6" value="&lt;font color=&quot;#009900&quot; style=&quot;&quot;&gt;&lt;i style=&quot;&quot;&gt;&lt;font style=&quot;font-size: 15px;&quot;&gt;&amp;lt;&amp;lt;Class&amp;gt;&amp;gt;&lt;/font&gt;&lt;/i&gt;&lt;br&gt;&lt;span style=&quot;font-size: 18px;&quot;&gt;&lt;b&gt;Article&lt;/b&gt;&lt;/span&gt;&lt;br&gt;&lt;/font&gt;" style="rounded=0;whiteSpace=wrap;html=1;strokeWidth=3;fillColor=default;strokeColor=#009900;" parent="1" vertex="1">
          <mxGeometry x="440" y="220" width="150" height="60" as="geometry" />
        </mxCell>
        <mxCell id="Nm4DvwC05aNTQ_nPjf05-7" value="" style="endArrow=none;html=1;rounded=0;entryX=0.5;entryY=1;entryDx=0;entryDy=0;strokeWidth=2;fillColor=#d5e8d4;strokeColor=#009900;dashed=1;" parent="1" source="Nm4DvwC05aNTQ_nPjf05-8" target="Nm4DvwC05aNTQ_nPjf05-6" edge="1">
          <mxGeometry width="50" height="50" relative="1" as="geometry">
            <mxPoint x="515" y="670" as="sourcePoint" />
            <mxPoint x="235" y="350" as="targetPoint" />
          </mxGeometry>
        </mxCell>
        <mxCell id="Nm4DvwC05aNTQ_nPjf05-8" value="" style="rounded=0;whiteSpace=wrap;html=1;fillColor=#FFFFFF;strokeWidth=2;strokeColor=#009900;" parent="1" vertex="1">
          <mxGeometry x="502.5" y="500" width="25" height="90" as="geometry" />
        </mxCell>
        <mxCell id="Nm4DvwC05aNTQ_nPjf05-9" value="" style="endArrow=none;html=1;rounded=0;entryX=0.5;entryY=1;entryDx=0;entryDy=0;strokeWidth=2;fillColor=#d5e8d4;strokeColor=#009900;dashed=1;" parent="1" target="Nm4DvwC05aNTQ_nPjf05-8" edge="1">
          <mxGeometry width="50" height="50" relative="1" as="geometry">
            <mxPoint x="515" y="960" as="sourcePoint" />
            <mxPoint x="515" y="676" as="targetPoint" />
          </mxGeometry>
        </mxCell>
        <mxCell id="Nm4DvwC05aNTQ_nPjf05-10" value="" style="endArrow=none;html=1;rounded=0;strokeWidth=2;strokeColor=#009900;startArrow=classic;startFill=1;" parent="1" edge="1">
          <mxGeometry width="50" height="50" relative="1" as="geometry">
            <mxPoint x="310" y="390" as="sourcePoint" />
            <mxPoint x="-70" y="390" as="targetPoint" />
          </mxGeometry>
        </mxCell>
        <mxCell id="Nm4DvwC05aNTQ_nPjf05-11" value="&lt;font style=&quot;&quot;&gt;&lt;i style=&quot;&quot;&gt;&lt;font style=&quot;font-size: 12px;&quot;&gt;&amp;lt;&amp;lt;static&amp;gt;&amp;gt;&lt;/font&gt;&lt;/i&gt;&lt;br&gt;&lt;span style=&quot;font-size: 14px;&quot;&gt;getAuctionFromId(id)&lt;/span&gt;&lt;/font&gt;" style="text;html=1;align=center;verticalAlign=middle;resizable=0;points=[];autosize=1;strokeColor=none;fillColor=none;" parent="1" vertex="1">
          <mxGeometry x="61.5" y="353" width="150" height="40" as="geometry" />
        </mxCell>
        <mxCell id="Nm4DvwC05aNTQ_nPjf05-12" value="" style="endArrow=none;html=1;rounded=0;strokeWidth=2;strokeColor=#009900;startArrow=classic;startFill=1;" parent="1" edge="1">
          <mxGeometry width="50" height="50" relative="1" as="geometry">
            <mxPoint x="-70" y="430" as="sourcePoint" />
            <mxPoint x="310" y="430" as="targetPoint" />
          </mxGeometry>
        </mxCell>
        <mxCell id="Nm4DvwC05aNTQ_nPjf05-13" value="&lt;font style=&quot;font-size: 14px;&quot;&gt;&lt;i&gt;Auction&lt;/i&gt;&amp;nbsp;auction&lt;/font&gt;" style="text;html=1;align=center;verticalAlign=middle;resizable=0;points=[];autosize=1;strokeColor=none;fillColor=none;" parent="1" vertex="1">
          <mxGeometry x="81" y="406" width="120" height="30" as="geometry" />
        </mxCell>
        <mxCell id="Nm4DvwC05aNTQ_nPjf05-14" value="" style="endArrow=none;html=1;rounded=0;strokeWidth=2;strokeColor=#009900;startArrow=classic;startFill=1;" parent="1" edge="1">
          <mxGeometry width="50" height="50" relative="1" as="geometry">
            <mxPoint x="880" y="819" as="sourcePoint" />
            <mxPoint x="-70" y="818" as="targetPoint" />
          </mxGeometry>
        </mxCell>
        <mxCell id="Nm4DvwC05aNTQ_nPjf05-15" value="&lt;font style=&quot;font-size: 14px;&quot;&gt;setVariable(&quot;bids&quot;, bidList)&lt;/font&gt;" style="text;html=1;align=center;verticalAlign=middle;resizable=0;points=[];autosize=1;strokeColor=none;fillColor=none;" parent="1" vertex="1">
          <mxGeometry x="43.5" y="793" width="190" height="30" as="geometry" />
        </mxCell>
      </root>
    </mxGraphModel>
  </diagram>
</mxfile>
